<?xml version="1.0" encoding="UTF-8" standalone="no"?>
<!-- Created with Inkscape (http://www.inkscape.org/) -->

<svg
   version="1.1"
   id="svg1"
   width="197"
   height="292"
   viewBox="0 0 197 292"
   sodipodi:docname="老八（1.svg"
   inkscape:version="1.4 (86a8ad7, 2024-10-11)"
   xmlns:inkscape="http://www.inkscape.org/namespaces/inkscape"
   xmlns:sodipodi="http://sodipodi.sourceforge.net/DTD/sodipodi-0.dtd"
   xmlns="http://www.w3.org/2000/svg"
   xmlns:svg="http://www.w3.org/2000/svg">
  <defs
     id="defs1" />
  <sodipodi:namedview
     id="namedview1"
     pagecolor="#ffffff"
     bordercolor="#000000"
     borderopacity="0.25"
     inkscape:showpageshadow="2"
     inkscape:pageopacity="0.0"
     inkscape:pagecheckerboard="0"
     inkscape:deskcolor="#d1d1d1"
     showgrid="false"
     inkscape:zoom="2.9280822"
     inkscape:cx="98.357895"
     inkscape:cy="146"
     inkscape:window-width="1920"
     inkscape:window-height="1057"
     inkscape:window-x="2552"
     inkscape:window-y="-8"
     inkscape:window-maximized="1"
     inkscape:current-layer="g1" />
  <g
     inkscape:groupmode="layer"
     inkscape:label="Image"
     id="g1">
    <path
       style="fill:#000000;stroke-width:1.03022"
       d="m 95.429498,289.15678 c -4.044731,-1.2058 -3.894944,-4.82567 0.365666,-8.83713 2.902677,-2.73293 3.823708,-4.59671 4.671236,-9.45261 1.63895,-9.39035 2.51652,-27.21068 1.71018,-34.72755 l -0.72978,-6.803 h -3.338211 c -4.430935,0 -10.200327,-4.98406 -9.716631,-8.39398 0.256575,-1.8088 -0.414722,-2.78734 -2.708149,-3.94764 -3.480964,-1.76108 -14.512217,-16.57366 -15.50991,-20.82643 -1.094679,-4.6662 0.522043,-9.07627 5.152903,-14.05605 l 4.383202,-4.71347 0.390681,-21.5978 0.390681,-21.5978 -10.817265,-3.78807 c -5.949498,-2.08344 -10.310349,-3.81898 -9.690779,-3.85674 0.619569,-0.0379 3.63295,0.79219 6.696403,1.8444 3.063453,1.05218 5.937496,1.92987 6.386765,1.95042 0.449269,0.0205 2.230575,0.62194 3.958459,1.33645 2.609678,1.07912 3.306516,1.05361 4.115554,-0.15054 0.616125,-0.9171 0.717233,6.76852 0.275201,20.91944 -0.384308,12.30302 -0.401803,22.36915 -0.03888,22.36915 0.362926,0 1.500036,-0.80991 2.526911,-1.79983 1.026875,-0.98987 4.24833,-3.99455 7.158787,-6.67701 l 5.291742,-4.87718 -1.848212,-5.40748 c -1.016514,-2.97411 -2.692631,-8.87854 -3.724698,-13.12097 -1.374039,-5.64814 -2.658076,-8.44359 -4.795468,-10.44017 -1.60544,-1.49968 -2.918981,-3.32776 -2.918981,-4.06246 0,-1.03892 0.274725,-1.06149 1.23626,-0.10162 2.757462,2.75279 3.78016,1.37164 3.192601,-4.31159 -0.572795,-5.54043 -0.570246,-5.54644 2.649975,-6.25252 1.772827,-0.38871 3.223323,-0.96999 3.223323,-1.29173 0,-0.83421 -11.690558,-11.55917 -12.620144,-11.57776 -0.424965,-0.008 -0.772663,0.67878 -0.772663,1.52727 0,0.85706 -0.915748,1.54271 -2.060431,1.54271 -1.133238,0 -2.060433,-0.513 -2.060433,-1.13997 0,-0.70701 -0.993228,-0.8911 -2.615106,-0.48473 -1.567155,0.39267 -4.033734,-0.0174 -6.1552,-1.02181 -1.947052,-0.92235 -5.98572,-2.29544 -8.974822,-3.05131 l -5.434728,-1.37431 5.151078,0.59085 c 2.833095,0.32495 6.157354,0.96512 7.387246,1.4226 2.231326,0.82999 2.232676,0.82132 0.623432,-3.996922 -2.026744,-6.068295 -1.778043,-5.855659 -4.56753,-3.905144 -1.295956,0.906179 -3.991619,1.573535 -5.990362,1.482996 l -3.63408,-0.164679 3.605756,-0.430044 c 6.784852,-0.809205 9.476725,-5.939378 4.741655,-9.036652 -3.431863,-2.244819 -6.802087,-10.589455 -6.802087,-16.841863 0,-8.777404 5.753188,-22.502687 15.993598,-38.155661 5.179011,-7.916368 16.037505,-19.528513 18.287329,-19.556612 3.166328,-0.03942 4.03464,-1.676986 2.956442,-5.5752715 -1.978314,-7.15269375 0.56098,-8.3244019 10.371466,-4.78572 2.99601,1.0806669 8.29459,2.437163 11.77461,3.0144078 8.20086,1.3603031 17.19997,5.9509147 24.21783,12.3539437 5.21384,4.75708 7.77466,7.904059 22.4486,27.586962 5.90286,7.917799 8.22809,9.196589 13.43022,7.3862 2.86909,-0.998476 3.25215,-1.544917 2.87607,-4.102862 -0.2386,-1.623029 -0.0506,-2.950982 0.41796,-2.950982 1.51798,0 0.9005,5.878581 -0.7622,7.25616 -0.88769,0.735461 -3.20416,1.370642 -5.14771,1.411516 -1.94356,0.04078 -3.41936,0.311426 -3.27955,0.601265 0.1398,0.289821 1.61237,3.241325 3.27236,6.558887 4.40742,8.808344 4.17955,13.428389 -1.21515,24.637952 -2.40804,5.003631 -4.11917,9.516034 -3.8025,10.027552 0.31667,0.511501 0.0734,0.930005 -0.54076,0.930005 -1.81608,0 -3.18157,-4.862399 -2.13627,-7.607084 0.64021,-1.681025 0.53018,-3.022467 -0.34605,-4.218757 -1.13694,-1.552202 -1.42367,-1.291099 -2.49219,2.269228 -0.66408,2.212777 -2.37422,5.117494 -3.80031,6.454955 -3.16746,2.970636 -3.42866,4.831176 -0.37882,2.698615 3.10369,-2.170224 5.51724,-0.696173 16.84495,10.287879 5.76604,5.5911 11.20025,9.85199 14.37168,11.26861 5.78626,2.58463 9.83841,6.06402 9.83841,8.44781 0,0.88921 -1.83812,5.40784 -4.08471,10.04141 -3.30566,6.81787 -5.5826,9.82114 -11.93851,15.74677 -6.39477,5.96188 -8.19557,7.13952 -9.69354,6.33921 -1.37867,-0.7366 -2.30506,-0.46964 -3.69644,1.0652 -1.9508,2.15196 -3.53997,1.19374 -3.50662,-2.11433 0.0118,-1.16968 0.27918,-1.09018 1.10586,0.32888 1.0034,1.72237 1.18913,1.73666 2.32998,0.17914 1.00323,-1.36968 0.74726,-2.7564 -1.34221,-7.27102 -2.70961,-5.85456 -3.78422,-6.76646 -4.4529,-3.77874 -0.22155,0.98989 -1.02471,-0.86135 -1.7848,-4.11386 -1.69074,-7.2349 -3.11518,-7.49504 -8.44699,-1.54272 -5.35471,5.97793 -6.37015,10.23325 -6.44234,26.99726 -0.0543,12.61703 0.30101,15.79827 2.87184,25.71166 1.6136,6.22224 3.55341,11.96277 4.31068,12.75681 1.17505,1.2321 2.63168,0.83103 9.93852,-2.73658 4.70891,-2.29917 9.89816,-5.29149 11.53165,-6.64961 l 2.96998,-2.46929 -2.92043,-7.83981 c -2.89346,-7.76741 -2.94943,-7.83373 -6.06064,-7.18408 -6.02222,1.25753 -8.29127,0.90605 -8.29127,-1.28437 0,-1.33247 1.51426,-2.87076 4.37864,-4.44817 3.74566,-2.06271 4.288,-2.77183 3.75163,-4.90528 -1.16168,-4.62061 0.37398,-2.54136 2.14588,2.90548 0.96608,2.96968 3.39168,9.77338 5.39024,15.1193 l 3.63374,9.71987 -3.21121,2.86436 c -1.76618,1.57538 -3.21123,3.12102 -3.21123,3.43472 0,0.31369 0.98964,1.90665 2.19919,3.53988 2.81723,3.80402 2.16906,5.29052 -4.34357,9.96144 l -5.3225,3.81734 0.49399,23.20956 c 0.38838,18.24712 0.90186,24.69226 2.40159,30.14429 1.37839,5.0109 1.59562,7.2462 0.78307,8.05735 -0.61849,0.61744 -4.02708,1.38537 -7.57461,1.70652 l -6.45009,0.58386 0.57064,-7.61276 c 0.64395,-8.59074 -0.78098,-18.4094 -5.54517,-38.20965 -1.73532,-7.21212 -3.22891,-13.10794 -3.31908,-13.10182 -0.0901,0.006 -2.45443,0.70475 -5.25389,1.55253 -2.79947,0.84776 -6.50825,1.27813 -8.24173,0.95639 -1.83035,-0.33974 -4.75454,0.086 -6.97455,1.01552 -3.04047,1.27302 -4.03005,2.39043 -4.8357,5.4604 -1.52761,5.82109 -8.37211,40.03478 -9.39179,46.9469 -0.49189,3.33426 -1.30326,6.47054 -1.80308,6.96949 -1.26175,1.2596 -10.506065,1.9527 -13.628684,1.02181 z M 116.60034,245.998 c 1.2886,-6.39171 2.60635,-12.30663 2.92833,-13.14422 1.043,-2.71342 -3.8173,-4.03368 -9.78601,-2.65828 -2.87497,0.6625 -5.72131,0.89969 -6.32522,0.52709 -0.74573,-0.4601 -0.88479,0.61126 -0.43345,3.33921 0.36551,2.20914 0.66966,8.55322 0.67589,14.09793 l 0.0114,10.08129 5.29309,-0.31085 5.29308,-0.31087 z m 44.19939,3.74272 c 2.61164,-1.18792 2.62402,-1.25523 2.62402,-14.27261 0,-15.57817 -0.59456,-16.70089 -7.09196,-13.39178 -2.28709,1.16478 -5.3358,2.1178 -6.77491,2.1178 -1.43912,0 -2.61659,0.28388 -2.61659,0.63081 0,0.68411 3.61399,15.99924 5.25105,22.25259 1.11002,4.24006 3.50958,4.98244 8.60839,2.66319 z m -49.68726,-21.62294 c 3.17302,-0.94904 4.52047,-0.94067 6.08999,0.0379 1.62925,1.01576 3.14164,0.90976 7.89248,-0.55311 3.23234,-0.9953 6.1602,-2.20816 6.5063,-2.69524 0.34611,-0.4871 0.88969,-0.20817 1.20795,0.6198 0.68107,1.77184 6.0138,1.04932 12.43767,-1.68512 2.185,-0.93011 4.36971,-1.44617 4.8549,-1.14682 0.48517,0.29935 3.10162,-0.54644 5.8143,-1.87953 2.71268,-1.33312 5.7848,-2.23343 6.82693,-2.00073 2.05789,0.4595 7.1362,-3.63053 6.26169,-5.04312 -0.29528,-0.47695 0.0668,-0.65411 0.80441,-0.3937 0.73769,0.26042 2.20619,-0.18205 3.26331,-0.9835 1.86542,-1.41407 1.85535,-1.56469 -0.34157,-5.11337 -1.24499,-2.01102 -2.47083,-3.65639 -2.72408,-3.65639 -0.25326,0 -3.17606,1.3685 -6.49513,3.04112 -3.31908,1.67262 -8.17362,3.5788 -10.78789,4.23596 -3.14703,0.7911 -4.78071,1.76179 -4.83456,2.87256 -0.0483,0.99706 -0.2863,1.17366 -0.58655,0.43528 -0.37328,-0.91797 -1.84188,-0.7165 -5.62301,0.77135 -6.486,2.5522 -8.78374,2.54173 -9.46085,-0.0431 -0.32237,-1.23065 -1.40522,-2.05692 -2.69569,-2.05692 -1.73152,0 -2.15688,0.63747 -2.15688,3.23236 v 3.23235 l -8.49928,-0.75588 c -4.6746,-0.41573 -12.30104,-0.85827 -16.94764,-0.98342 -8.342565,-0.22474 -8.453627,-0.19457 -8.870262,2.40872 -0.276934,1.73038 -0.365521,1.48771 -0.257798,-0.70623 0.210594,-4.28906 -2.104771,-4.45295 -3.037169,-0.21497 -0.704979,3.20428 0.958798,6.61765 2.701539,5.54242 0.502416,-0.31 0.913484,0.15788 0.913484,1.03977 0,1.14681 1.026785,1.6034 3.605757,1.6034 1.983169,0 3.953449,0.0155 4.378419,0.0343 0.42496,0.0194 1.05457,-1.71682 1.39912,-3.85676 0.62597,-3.88761 0.6266,-3.88677 0.77266,0.99441 0.16373,5.47084 0.69562,5.72787 7.58745,3.66652 z m 5.00268,-4.52358 c 0.0494,-1.1981 0.29355,-1.44179 0.62242,-0.62136 0.29759,0.74242 0.261,1.62947 -0.0813,1.97124 -0.34234,0.34175 -0.58582,-0.26571 -0.54109,-1.34988 z m 51.01737,-13.3872 c -0.36665,-0.95385 -0.43482,-1.96567 -0.15151,-2.2485 0.28331,-0.28283 0.81509,0.2662 1.18172,1.22003 0.36666,0.95384 0.43484,1.96567 0.15153,2.24849 -0.2833,0.28283 -0.81508,-0.26618 -1.18174,-1.22002 z m -40.79654,5.74963 c 0,-1.93918 -0.63571,-2.06025 -10.30216,-1.96183 -5.66619,0.0578 -10.30216,0.46033 -10.30216,0.89474 0,0.86688 10.61815,2.7637 16.741,2.99062 3.23017,0.11962 3.86332,-0.19551 3.86332,-1.92353 z m 16.87512,-2.95052 c 7.4735,-3.14764 7.9632,-5.27616 0.61871,-2.68928 -2.39804,0.84465 -5.69259,1.53572 -7.32121,1.53572 -2.2743,0 -2.96112,0.47707 -2.96112,2.05693 0,2.72931 1.33483,2.60452 9.66362,-0.90337 z m -41.41189,-0.89644 c 0.24858,-3.73155 -0.0241,-8.20117 -0.76043,-12.46687 l -0.59864,-3.46777 -3.116058,2.95355 c -1.713831,1.62444 -4.52946,4.7227 -6.256952,6.88504 -3.605526,4.51308 -2.982987,5.95684 3.332151,7.72769 6.112429,1.71404 7.192919,1.47579 7.399929,-1.63164 z m -15.933313,-4.08153 c 1.576958,-2.32943 6.344176,-7.86144 10.593816,-12.29336 4.249637,-4.43195 9.068307,-9.67636 10.708167,-11.65425 2.88768,-3.48299 16.70893,-18.64712 28.56277,-31.33794 9.75149,-10.44003 13.26145,-14.40284 13.23239,-14.93964 -0.069,-1.27417 -2.78657,-3.73456 -5.39986,-4.88886 -1.57411,-0.69528 -3.16128,-2.04272 -3.52706,-2.99428 -0.36577,-0.95158 -1.5823,-2.64584 -2.70337,-3.76502 -1.78452,-1.78148 -2.17995,-1.84154 -3.17557,-0.48225 -6.50871,8.88605 -51.0427,53.39925 -52.561825,52.53727 -0.607193,-0.34455 -0.788035,-0.27539 -0.401868,0.15363 0.386166,0.42907 -1.352324,3.29813 -3.863309,6.3757 -2.510988,3.07759 -4.599881,5.9247 -4.641987,6.32695 -0.0421,0.40222 -0.268541,1.75659 -0.50319,3.00972 -0.234652,1.2531 0.07933,3.56714 0.697757,5.14233 1.115307,2.84078 1.131594,2.84523 2.015318,0.54987 0.490007,-1.27271 1.36946,-2.31404 1.954338,-2.31404 1.343049,0 1.338177,0.65116 -0.02389,3.19187 -0.598007,1.11549 -0.774084,3.01331 -0.39128,4.21736 0.694251,2.18368 0.700719,2.18297 2.562153,-0.28059 1.026381,-1.3584 2.214644,-2.12189 2.640586,-1.69668 0.425944,0.4252 0.225852,1.32077 -0.444649,1.99015 -0.670497,0.66937 -1.219087,2.1889 -1.219087,3.37679 0,1.92621 1.981979,5.04924 2.73031,4.30219 0.160669,-0.1604 1.58237,-2.19753 3.159329,-4.52696 z m -2.512795,-8.02144 c -1.227981,-0.85866 -3.251222,-2.98915 -4.496094,-4.73446 -1.862109,-2.61064 -2.0092,-3.33394 -0.829629,-4.07962 2.203908,-1.39323 3.265085,-1.10841 2.573507,0.69075 -0.399573,1.03953 -0.159955,1.46451 0.662442,1.1749 0.708659,-0.24957 1.224081,-1.21385 1.145385,-2.14287 -0.176961,-2.08903 1.03028,-2.1773 2.677597,-0.19577 1.619394,1.94792 0.429798,5.79028 -1.557035,5.02916 -0.820921,-0.31448 -1.492584,-0.0906 -1.492584,0.49741 0,0.58807 0.927194,1.36297 2.060431,1.72205 1.133237,0.35907 2.060431,1.31586 2.060431,2.12622 0,1.82802 -0.06764,1.82591 -2.804451,-0.0877 z m 5.022218,-4.32816 c 0.432983,-2.65449 -4.883151,-8.60755 -6.972019,-7.80733 -1.63728,0.62722 -1.827101,-0.5349 -0.443946,-2.7179 0.827515,-1.30605 1.194746,-1.29002 2.817318,0.1229 1.026175,0.89358 2.519142,1.39055 3.317708,1.10434 0.978519,-0.35069 1.253106,-0.004 0.842137,1.06605 -0.344187,0.8954 0.257408,2.36987 1.381161,3.38514 2.421895,2.18806 2.524329,3.87156 0.345411,5.67682 -1.428084,1.18319 -1.598262,1.0735 -1.28777,-0.83004 z m 6.796623,-7.04597 c -0.424964,-0.42767 -0.772662,-1.62607 -0.772662,-2.6631 0,-1.32557 -0.764857,-1.88553 -2.575539,-1.88553 -1.416548,0 -2.575541,-0.46279 -2.575541,-1.02847 0,-0.56564 1.144444,-1.02845 2.543208,-1.02845 1.918116,0 2.386241,-0.40836 1.904589,-1.66139 -0.511772,-1.33139 -0.18531,-1.51776 1.643564,-0.93827 1.811447,0.57396 2.215462,0.35479 1.95872,-1.06254 -0.221696,-1.22387 0.407606,-1.84545 2.000245,-1.97568 1.278043,-0.10455 2.248013,0.31135 2.155493,0.92411 -0.0925,0.61279 0.20428,1.97075 0.65952,3.01775 0.52997,1.21886 0.35566,2.19487 -0.48462,2.7133 -0.72178,0.44532 -0.99376,1.32423 -0.60442,1.95313 0.39921,0.64484 0.0341,1.14346 -0.83744,1.14346 -0.849925,0 -1.91054,-0.57853 -2.356933,-1.28558 -0.539208,-0.8541 -0.991841,-0.30546 -1.348571,1.6346 -0.295322,1.60614 -0.884649,2.57032 -1.309613,2.14266 z m 5.408637,-7.05909 c 0,-1.08552 -1.9771,-1.5416 -2.565158,-0.5917 -0.355901,0.57487 0.07566,1.04524 0.959029,1.04524 0.88337,0 1.606129,-0.20409 1.606129,-0.45354 z m -13.39281,-1.60339 c 0,-0.56566 0.927193,-1.02847 2.060431,-1.02847 1.133239,0 2.060432,0.46281 2.060432,1.02847 0,0.56564 -0.927193,1.02845 -2.060432,1.02845 -1.133238,0 -2.060431,-0.46281 -2.060431,-1.02845 z m 4.120863,-3.59964 c 0,-0.84847 0.463598,-1.54269 1.030217,-1.54269 0.566618,0 1.030214,0.69422 1.030214,1.54269 0,0.84847 -0.463596,1.54269 -1.030214,1.54269 -0.566619,0 -1.030217,-0.69422 -1.030217,-1.54269 z m 2.747243,-1.19988 c -0.984575,-0.9829 -0.8469,-2.39975 0.233183,-2.39975 0.505997,0 1.186842,0.69422 1.512991,1.54269 0.602593,1.56767 -0.494812,2.1063 -1.746174,0.85706 z m 12.264474,-0.93051 c -2.18394,-2.18024 -2.07086,-2.80048 1.18604,-6.50582 3.03309,-3.4507 5.01743,-4.20685 3.9839,-1.5181 -0.35371,0.92017 -0.0556,2.38321 0.66245,3.25118 1.13096,1.36711 0.9234,1.50566 -1.55214,1.03605 -3.57057,-0.67733 -4.60981,0.74081 -1.81827,2.48121 1.15522,0.72021 2.10041,1.66098 2.10041,2.09056 0,1.36799 -2.88441,0.84005 -4.56239,-0.83508 z m -5.73977,-5.5248 c 0,-0.53357 1.04309,-1.73861 2.31798,-2.67781 1.55249,-1.14376 1.89272,-1.87059 1.03022,-2.20098 -2.70951,-1.03786 -1.11249,-2.37878 2.8331,-2.37878 2.26647,0 4.12086,0.46281 4.12086,1.02847 0,0.56565 -0.57951,1.04132 -1.28777,1.05703 -0.70828,0.0155 -2.63993,1.40414 -4.29258,3.08539 -3.051,3.10384 -4.72181,3.84223 -4.72181,2.08668 z m 17.51367,-9.3145 c 0,-1.59984 -0.68681,-2.05695 -3.09064,-2.05695 -1.69986,0 -3.09066,-0.46279 -3.09066,-1.02845 0,-0.56566 1.15899,-1.02849 2.57554,-1.02849 1.60257,0 2.57554,-0.58278 2.57554,-1.54269 0,-1.95746 1.65936,-2.01261 2.4023,-0.0798 0.34414,0.89531 1.38615,1.24778 2.68576,0.90851 1.16789,-0.30489 2.12345,-0.0916 2.12345,0.47411 0,0.56565 -0.92719,1.27051 -2.06043,1.56637 -1.23276,0.32182 -2.06043,1.40284 -2.06043,2.69111 0,1.18428 -0.4636,2.15322 -1.03022,2.15322 -0.56661,0 -1.03021,-0.92562 -1.03021,-2.05693 z m 5.90091,-8.30261 c -3.56772,-2.93583 -4.89149,-5.10921 -3.06782,-5.03678 0.42496,0.0174 2.85885,1.85432 5.40864,4.08317 5.47444,4.78544 3.36172,5.64612 -2.34082,0.95361 z m 2.8502,-4.04529 c -1.0287,-1.1348 -1.56699,-2.36611 -1.1962,-2.73628 0.75126,-0.75 4.80768,2.56627 4.80768,3.93044 0,1.50142 -1.66776,0.94995 -3.61148,-1.19416 z m 2.61364,-5.00951 c 0.0177,-0.35241 1.13084,-1.43768 2.47341,-2.41169 2.12775,-1.54364 2.60135,-1.5781 3.69011,-0.26845 0.687,0.82637 1.69784,1.22561 2.24634,0.8872 0.5485,-0.33842 -0.54712,-1.90801 -2.43471,-3.48799 -4.47134,-3.74266 -3.38306,-4.79245 1.5201,-1.46632 3.90687,2.65028 4.78505,4.84565 2.51698,6.29218 -1.54139,0.98307 -10.05846,1.37018 -10.01223,0.45507 z m 9.23956,68.25567 c 4.24964,-0.93122 8.07131,-2.02409 8.4926,-2.4286 0.42129,-0.40451 -0.12055,-3.95502 -1.20411,-7.88999 -1.08355,-3.93498 -2.712,-11.55121 -3.61877,-16.92496 -0.90679,-5.37372 -2.10343,-12.00408 -2.65921,-14.73409 -0.55578,-2.73004 -1.01051,-6.5482 -1.01051,-8.48486 0,-1.93665 -0.43248,-3.52116 -0.96109,-3.52116 -0.52859,0 -4.58506,4.03515 -9.01439,8.96701 -4.42931,4.93188 -11.91828,12.98658 -16.64216,17.89938 l -8.58886,8.93231 0.74673,10.51486 0.74674,10.51485 12.99321,-0.57579 c 7.14626,-0.3167 16.47019,-1.33772 20.71982,-2.26896 z m -18.38122,-13.87348 c 0,-1.41413 0.23384,-1.99265 0.51963,-1.28557 0.28579,0.70707 0.28579,1.86408 0,2.57116 -0.28579,0.70707 -0.51963,0.12851 -0.51963,-1.28559 z m 7.69123,-11.86713 c -0.99414,-2.58627 -0.70087,-3.2536 0.51359,-1.16867 0.60133,1.03232 0.87631,2.0936 0.61105,2.3584 -0.26524,0.26479 -0.77132,-0.27058 -1.12464,-1.18973 z m 13.79199,-22.84361 c 0.006,-2.12122 0.2756,-5.70798 0.59858,-7.97062 l 0.58725,-4.11386 -1.88635,2.3044 c -1.4449,1.76509 -1.80378,3.63048 -1.53347,7.97062 0.39492,6.34095 2.21632,7.81624 2.23399,1.80946 z m -41.06525,-9.83112 0.15473,-5.33874 0.61792,4.62807 0.61794,4.62811 4.36557,-4.62811 c 2.40107,-2.54543 4.37137,-4.89585 4.37842,-5.22312 0.007,-0.32726 -1.40116,-2.72618 -3.12941,-5.3309 -2.64179,-3.9816 -2.94632,-5.04913 -1.91198,-6.70253 1.02266,-1.63474 0.81985,-2.52089 -1.20165,-5.25046 -1.97489,-2.66663 -2.21028,-3.63815 -1.25251,-5.16917 0.87571,-1.39988 0.88009,-2.1842 0.017,-3.04581 -1.99984,-1.99645 -2.30655,-1.32343 -1.93165,4.23835 0.2002,2.97006 0.011,5.057 -0.42032,4.63767 -1.645881,-1.59993 -3.549446,1.68596 -3.549446,6.12697 0,3.7335 0.387555,4.69963 2.060435,5.13636 2.258331,0.58954 2.332831,0.87142 1.030211,3.89762 -0.883074,2.05155 -0.885592,2.05151 -0.957804,-0.0136 -0.03985,-1.13858 -1.115501,-2.527 -2.390395,-3.08539 -1.432644,-0.62747 -2.442493,-2.09547 -2.64397,-3.84351 -0.17928,-1.55554 -0.758786,-2.82829 -1.287771,-2.82829 -1.269644,0 -1.229167,0.65352 0.569024,9.18733 3.041313,14.43334 6.560066,18.5226 6.865646,7.97879 z m -0.50887,-15.62342 c 0.34511,-2.26264 0.79777,-4.30671 1.00592,-4.5424 0.78036,-0.88363 0.19614,4.62497 -0.6999,6.59933 -0.650595,1.43357 -0.743335,0.81021 -0.30602,-2.05693 z m 74.52968,17.89655 c 0,-2.40344 6.40714,-8.99246 7.00453,-7.20334 0.20828,0.62378 0.72506,1.13416 1.14841,1.13416 1.43787,0 7.04682,-8.71592 9.77787,-15.1941 2.1861,-5.18554 2.49569,-6.87062 1.57713,-8.58404 -1.07242,-2.00045 -14.99455,-9.13279 -17.82695,-9.13279 -1.9414,0 -7.12842,5.80184 -6.59235,7.37375 0.25664,0.75251 -0.45803,3.14876 -1.58812,5.32498 -1.69124,3.2568 -1.80539,4.11061 -0.64527,4.82637 0.81817,0.50482 1.9642,0.41003 2.73179,-0.22593 2.22158,-1.84064 1.47376,0.22236 -1.25352,3.45806 -3.81353,4.52443 -4.16838,7.35482 -1.55474,12.4009 3.86584,7.46364 7.22122,10.16887 7.22122,5.82198 z m -59.16086,-13.34253 c 2.87739,-2.78415 3.128,-3.45519 2.10949,-5.64855 -1.34081,-2.88744 -2.92186,-3.17538 -4.83033,-0.8797 -0.78809,0.94796 -2.34347,1.43604 -3.7319,1.17109 -1.30936,-0.2499 -2.38064,-0.0878 -2.38064,0.3602 0,0.98518 4.44381,8.05141 5.10203,8.1129 0.25633,0.024 1.93544,-1.37823 3.73135,-3.11594 z m 49.38916,-2.60861 c 2.28624,-2.9923 2.55935,-3.88569 1.41005,-4.61233 -2.05642,-1.30019 -3.08507,-1.14821 -5.2076,0.76939 -2.60731,2.35557 -2.45188,7.5541 0.22587,7.5541 0.40494,0 2.01219,-1.67001 3.57168,-3.71116 z m -44.22356,-6.3112 c -1.12541,-1.12349 -1.89712,0.66323 -1.08912,2.52161 0.76614,1.76214 0.82168,1.76054 1.24856,-0.0361 0.2457,-1.03417 0.17396,-2.15262 -0.15944,-2.48546 z m -7.29404,-0.64523 c 0.88076,-1.34192 1.78488,-3.88736 2.00916,-5.65657 0.3863,-3.04718 0.22493,-3.2167 -3.06214,-3.2167 -1.90846,0 -3.77598,0.49436 -4.15004,1.09858 -0.37408,0.6042 -1.31378,0.85584 -2.08826,0.55913 -2.29758,-0.88016 -2.61314,1.00776 -0.60521,3.62084 1.02907,1.33922 2.1672,3.24486 2.52918,4.23475 0.92826,2.53857 3.48086,2.23417 5.36731,-0.64003 z m 47.82052,-5.36503 c -0.75858,-0.91248 -0.64733,-1.53309 0.38356,-2.13965 0.79863,-0.46991 2.0423,-1.97527 2.76371,-3.34525 1.20343,-2.28535 1.02457,-2.72846 -2.16758,-5.36995 -1.91359,-1.58347 -3.91297,-2.74799 -4.44309,-2.58782 -0.53011,0.16021 -2.19749,2.57663 -3.70528,5.36994 -1.50779,2.79329 -3.50795,5.22834 -4.4448,5.41124 -1.93101,0.37698 -2.35737,3.26711 -0.48198,3.26711 0.67175,0 2.29434,-1.00629 3.60575,-2.23621 2.64971,-2.48504 3.15658,-1.44064 0.80631,1.66143 -2.10364,2.77652 -1.8933,4.19845 0.80542,5.44503 1.92281,0.88815 2.79776,0.62221 5.13225,-1.55994 2.05078,-1.91701 2.52437,-2.97933 1.74573,-3.91593 z m -4.83601,0.60562 c 1.29989,-2.07795 2.85155,-2.74951 2.85155,-1.23415 0,1.06858 -2.23216,3.29109 -3.30541,3.29109 -0.4581,0 -0.25388,-0.92563 0.45386,-2.05694 z m 1.82133,-6.68503 c -0.90331,-1.0866 -1.01157,-1.9727 -0.32475,-2.65836 0.6868,-0.68564 1.48188,-0.48515 2.38518,0.60142 0.90333,1.08659 1.01158,1.97271 0.32477,2.65835 -0.68681,0.68563 -1.48187,0.48517 -2.3852,-0.60141 z m -37.08777,9.77647 c 0,-1.39156 -2.96794,-3.28856 -4.07573,-2.60507 -0.59144,0.36492 -1.07534,1.49761 -1.07534,2.5171 0,1.42262 0.59886,1.73932 2.57554,1.36211 1.41654,-0.27034 2.57553,-0.8437 2.57553,-1.27414 z m -23.344009,-5.10426 c -0.210135,-4.29402 -1.440941,-5.4688 -4.837909,-4.61765 -2.259408,0.56611 -2.724555,1.26381 -2.724555,4.08669 0,5.93715 0.729004,6.79007 4.474698,5.23524 2.773302,-1.1512 3.227762,-1.84357 3.087766,-4.70428 z m 32.048419,1.65863 c 4.00839,-5.24637 3.54189,-6.66749 -2.06484,-6.29012 -2.58105,0.17373 -5.30387,0.8221 -6.05072,1.44089 -0.74685,0.61875 -2.11206,0.83614 -3.03381,0.48303 -2.88435,-1.10496 -1.87482,1.82942 1.6723,4.8608 4.39823,3.75874 6.30333,3.65931 9.47707,-0.4946 z m -19.12881,-7.04032 c 3.15864,-3.22526 4.17812,-5.97556 2.215,-5.97556 -0.54882,0 -0.73102,-0.69422 -0.40488,-1.5427 0.70932,-1.84528 -0.34442,-1.91002 -6.38276,-0.39214 -3.48006,0.87481 -4.57706,1.63692 -4.57706,3.17985 0,1.93622 3.92015,7.83476 5.28639,7.95428 0.35773,0.0313 2.09623,-1.41938 3.86331,-3.22373 z m 11.45462,0.55347 2.57554,-0.53701 -3.09065,-2.47667 c -1.69986,-1.36217 -3.41958,-2.47896 -3.82162,-2.48178 -0.91168,-0.006 -5.96543,5.37116 -5.96543,6.34764 0,0.68667 4.84282,0.28609 10.30216,-0.85218 z m 13.04683,-1.8318 c -1.00876,-2.62431 -2.50183,-1.83577 -1.9528,1.03137 0.33837,1.76707 0.84857,2.30133 1.53925,1.61183 0.56822,-0.56727 0.75431,-1.7567 0.41355,-2.6432 z m 13.12468,1.74379 c 0.41774,-0.41702 1.5381,-0.76412 2.48969,-0.77132 0.95159,-0.008 1.73016,-0.70735 1.73016,-1.55584 0,-0.84847 0.5795,-2.15427 1.28778,-2.90174 1.54497,-1.63049 1.70324,-5.97672 0.25028,-6.87317 -0.57063,-0.35208 -1.32093,0.0972 -1.66734,0.99842 -0.42461,1.10466 -1.31217,1.42233 -2.72409,0.97495 -1.68525,-0.53395 -1.96024,-0.31487 -1.40802,1.12177 0.54306,1.41279 0.25332,1.67231 -1.38845,1.24371 -2.83154,-0.73921 -3.86099,1.31362 -1.51687,3.02477 1.47828,1.07911 1.62888,1.66607 0.6725,2.62083 -0.67782,0.67667 -1.2324,1.60055 -1.2324,2.05309 0,1.03321 2.49053,1.07905 3.50676,0.0645 z m -17.36307,-3.70894 c 0.33327,-1.32562 0.18868,-3.98679 -0.32136,-5.91368 -1.04011,-3.92953 -1.63705,-4.03549 -10.28996,-1.82634 -5.77544,1.4745 -5.92196,1.60815 -4.36265,3.97947 0.90173,1.3713 1.12716,1.3713 2.02889,0 0.6387,-0.97128 1.02029,-1.08026 1.03022,-0.29419 0.0204,1.61158 7.15767,6.46498 9.50723,6.46498 1.03051,0 2.06103,-1.03163 2.40763,-2.41024 z m -10.11338,-4.91664 c 0.69883,-0.70286 1.53011,-1.01887 1.84731,-0.7022 0.31719,0.31664 -0.25458,0.89172 -1.2706,1.27793 -1.46827,0.55814 -1.58659,0.44 -0.57671,-0.57573 z m 52.1108,2.04525 c 1.23765,-0.64229 2.4202,-1.31331 2.6279,-1.49118 0.82021,-0.7024 -14.3983,-13.796517 -16.03487,-13.796517 -0.56209,0 -1.89255,0.960333 -2.95657,2.134052 -1.91704,2.114715 -1.90991,2.127875 0.78731,1.452075 2.19128,-0.54904 3.0546,-0.17509 4.4287,1.91851 0.93874,1.43028 2.71469,2.7438 3.94654,2.91892 1.50989,0.21465 2.34012,1.15627 2.54781,2.88957 0.65507,5.46722 1.07905,5.82938 4.65318,3.97457 z m -71.27116,-4.23167 c 0.68857,-2.40404 1.70043,-4.96069 2.2486,-5.68142 1.86416,-2.45109 0.0821,-2.24224 -3.99151,0.46776 -2.23426,1.48636 -4.240597,2.84769 -4.458519,3.02517 -0.885836,0.72148 2.291949,6.55947 3.570506,6.55947 0.758432,0 1.942353,-1.96694 2.630923,-4.37098 z m 11.70846,-0.33197 c 2.8331,-0.33096 6.07828,-1.01179 7.21152,-1.51296 1.13324,-0.50115 3.68231,-1.30377 5.66461,-1.78359 4.43253,-1.0729 4.98623,-3.22489 1.78557,-6.939538 l -2.44222,-2.834455 -5.48592,3.767237 c -3.01725,2.071976 -5.728,3.525556 -6.02388,3.230176 -0.29589,-0.29536 -0.3448,-0.67199 -0.10873,-0.83695 0.2361,-0.16504 2.39956,-1.559941 4.80768,-3.099983 2.40813,-1.540052 4.37842,-3.492032 4.37842,-4.337724 0,-0.845672 2.2285,-2.906495 4.95223,-4.579558 4.33696,-2.664041 5.18529,-3.780093 6.82815,-8.983025 2.5527,-8.084343 2.42001,-22.381962 -0.24073,-25.939698 -2.09189,-2.797096 -4.60815,-4.083557 -3.82455,-1.955327 1.13133,3.072673 -0.91682,4.003376 -6.2337,2.832634 -2.79793,-0.616069 -6.20132,-1.125695 -7.56306,-1.132497 -1.36175,-0.0077 -1.99534,-0.314924 -1.40795,-0.684712 0.6226,-0.391993 -1.03001,-3.005692 -3.96295,-6.267695 -2.76699,-3.077427 -5.03089,-5.333358 -5.03089,-5.013177 0,0.320161 1.0962,3.069464 2.43601,6.109536 3.86359,8.766679 4.28821,10.58358 2.295,9.820021 -1.40763,-0.539251 -1.50693,-0.308818 -0.59775,1.387126 0.99971,1.864788 0.75579,2.033787 -2.93559,2.033787 -3.42831,0 -4.63643,-0.661212 -8.138891,-4.454485 -4.04355,-4.379291 -8.512021,-14.04699 -8.512021,-18.416057 0,-3.248398 -1.207091,-1.361211 -5.418959,8.472007 -4.605038,10.751149 -5.665411,14.829932 -5.146933,19.797986 0.239899,2.298716 -0.04171,3.856737 -0.6971,3.856737 -1.667859,0 -1.322552,1.941064 0.899506,5.056349 1.789451,2.508803 2.683882,5.339079 4.652762,14.722929 0.981851,4.679585 5.603293,6.310446 15.980366,5.63928 4.84343,-0.313246 9.49275,-0.722575 10.33185,-0.909565 1.13857,-0.25376 1.43771,0.442702 1.17914,2.745378 -0.42774,3.809063 -0.87255,4.314263 -2.42974,2.759723 -0.6705,-0.66937 -1.5584,-1.217031 -1.97312,-1.217031 -1.07146,0 -4.60233,5.198861 -5.50962,8.112371 -0.70919,2.27736 -0.55059,2.40858 2.18283,1.80614 1.62117,-0.35729 5.26557,-0.92043 8.09866,-1.25139 z M 108.3072,85.706049 c 1.13323,-0.239228 3.11532,-0.660132 4.40463,-0.935323 1.2893,-0.275191 3.25959,-1.414201 4.37841,-2.531121 1.11882,-1.116921 2.03422,-1.56117 2.03422,-0.987191 0,1.782713 -6.53777,5.125456 -9.78705,5.004075 -2.00265,-0.07479 -2.36533,-0.268582 -1.03021,-0.55044 z M 83.296582,75.673258 c -0.622198,-1.36326 -0.812512,-3.561621 -0.422919,-4.885225 1.450884,-4.929268 2.887054,-6.214512 7.506714,-6.717896 3.719039,-0.405231 4.981556,-0.07247 7.023876,1.851454 1.369429,1.290017 2.016306,2.503062 1.437504,2.695676 -0.578803,0.192673 -0.847888,1.418028 -0.597974,2.723158 0.984029,5.138869 -6.387016,7.866065 -9.452272,3.497229 -2.027712,-2.89005 -2.05177,-4.913479 -0.05842,-4.913479 2.127279,0 1.951205,-2.709862 -0.230374,-3.545581 -3.505386,-1.342852 -5.761013,5.266338 -3.339133,9.783979 0.586556,1.094136 0.660969,1.98932 0.165366,1.98932 -0.495605,0 -1.41017,-1.115394 -2.032367,-2.478635 z M 96.16931,72.495339 c 0.123586,-1.696967 -0.06182,-2.391188 -0.412029,-1.542713 -0.9643,2.336342 -2.679575,3.095863 -4.181437,1.85155 -1.896488,-1.571276 -2.899337,-0.178758 -1.27683,1.772858 2.23178,2.684564 5.610434,1.486439 5.870296,-2.081695 z m 23.05551,-6.106483 c 2.89618,-3.018718 9.57693,-4.511688 12.2324,-2.733612 2.22118,1.48727 0.70781,2.404116 -5.37965,3.259084 -2.97428,0.417734 -6.33498,1.097944 -7.46821,1.511581 -1.74247,0.636013 -1.64749,0.321649 0.61546,-2.037053 z M 88.733093,56.849207 c -1.133238,-0.272119 -2.524028,-0.972407 -3.090648,-1.556185 -1.318423,-1.35835 4.717879,-0.04484 6.129786,1.333847 1.048537,1.02389 0.473991,1.065922 -3.039138,0.222338 z m 50.030637,49.507123 c 1.11689,-1.34347 1.09438,-1.78107 -0.13142,-2.55541 -2.3609,-1.49136 -3.0244,-1.13919 -3.0244,1.60534 0,2.94121 1.20014,3.30252 3.15581,0.95007 z M 70.126739,94.093122 c -4.293401,-8.813214 -4.510742,-9.070027 -4.541353,-5.366405 -0.04261,5.155354 2.153317,10.162872 5.66647,12.921643 1.571712,1.23421 2.976104,2.12183 3.120873,1.97249 0.144766,-0.14939 -1.765926,-4.436805 -4.24599,-9.527728 z m 71.662471,6.685048 c 0,-0.56568 -0.72276,-1.028481 -1.60613,-1.028481 -0.88337,0 -1.3196,0.462801 -0.96941,1.028481 0.35019,0.56564 1.07295,1.02847 1.60613,1.02847 0.53318,0 0.96941,-0.46283 0.96941,-1.02847 z m 11.31661,-10.602485 c 0.008,-0.457622 -0.44783,-0.546015 -1.01445,-0.196422 -0.56662,0.349593 -1.02312,1.41824 -1.01444,2.374742 0.0136,1.498768 0.1538,1.525901 1.01444,0.196422 0.54927,-0.848474 1.00576,-1.917121 1.01445,-2.374742 z M 60.913484,71.676838 c 0.213331,-5.944692 0.648574,-12.589132 0.967208,-14.765443 l 0.579334,-3.956918 -2.039289,4.236264 c -1.121609,2.329947 -2.603942,7.523467 -3.294071,11.541164 -1.112057,6.473992 -1.050703,7.732102 0.539402,11.060932 0.9868,2.065828 2.033888,3.516747 2.326863,3.224279 0.292973,-0.292468 0.707221,-5.395605 0.920553,-11.340278 z M 167.47104,82.305059 c 1.01828,-0.544024 2.41813,-2.355011 3.11077,-4.024363 1.07553,-2.592152 0.9528,-3.727123 -0.84074,-7.774831 -2.28171,-5.149421 -8.26505,-13.951755 -9.48364,-13.951755 -0.41613,0 0.12606,2.319009 1.20486,5.153363 2.16514,5.688498 2.56491,13.397063 0.85976,16.577783 -0.80208,1.49614 -0.76777,2.456759 0.12613,3.532015 1.44121,1.733609 2.49884,1.836322 5.02285,0.487788 z M 153.12158,63.239133 c 0,-1.27562 -0.69539,-2.895461 -1.54532,-3.599634 -1.33669,-1.107471 -1.54532,-0.621499 -1.54532,3.599634 0,4.221133 0.20863,4.707104 1.54532,3.599634 0.84993,-0.704173 1.54532,-2.324015 1.54532,-3.599634 z M 67.414705,38.528731 c -0.317192,-0.316662 -0.893247,0.254147 -1.280125,1.268432 -0.559083,1.46578 -0.440748,1.583896 0.576709,0.575737 0.704068,-0.697641 1.020607,-1.527524 0.703416,-1.844169 z m 12.561552,-2.151129 c 0,-1.452214 -0.448339,-2.294543 -1.030214,-1.935539 -0.566619,0.349595 -1.030217,1.792668 -1.030217,3.206811 0,1.452213 0.448342,2.294542 1.030217,1.935537 0.566618,-0.349593 1.030214,-1.792666 1.030214,-3.206809 z m 16.914306,0.0116 c 0.89627,-0.343332 1.622481,-1.384653 1.613807,-2.314042 -0.01376,-1.466746 -0.147585,-1.486169 -1.014441,-0.147065 -0.665777,1.028469 -1.003924,1.114177 -1.014442,0.257122 -0.0087,-0.707072 -0.479372,-1.285592 -1.045989,-1.285592 -0.56662,0 -1.030217,0.925621 -1.030217,2.056939 0,2.264821 0.127566,2.33818 2.491282,1.432657 z m 18.113047,-4.518069 c 0,-0.56565 -0.4636,-1.028451 -1.03023,-1.028451 -0.56662,0 -1.03022,0.462801 -1.03022,1.028451 0,0.565668 0.4636,1.028469 1.03022,1.028469 0.56663,0 1.03023,-0.462801 1.03023,-1.028469 z m 15.43745,-4.885206 c -0.008,-0.424247 -0.44707,-1.452157 -0.9742,-2.284262 -1.18694,-1.873659 -2.57946,-0.701854 -1.74516,1.468563 0.61614,1.602931 2.74854,2.242558 2.71936,0.815699 z m 3.10642,-1.739117 c 0,-1.085518 -1.9771,-1.541593 -2.56515,-0.591719 -0.3559,0.574887 0.0756,1.045243 0.95903,1.045243 0.88337,0 1.60612,-0.204074 1.60612,-0.453524 z m 4.12087,-1.028469 c 0,-0.249451 -0.4636,-0.739577 -1.03022,-1.089171 -0.56662,-0.349593 -1.03021,-0.145519 -1.03021,0.453545 0,0.599043 0.46359,1.08917 1.03021,1.08917 0.56662,0 1.03022,-0.204094 1.03022,-0.453544 z M 98.005037,7.1879402 c 0.350189,-0.5656493 -0.08603,-1.0284691 -0.969415,-1.0284691 -0.883368,0 -1.606124,0.4628198 -1.606124,1.0284691 0,0.5656687 0.436236,1.0284702 0.969415,1.0284702 0.533178,0 1.255934,-0.4628015 1.606124,-1.0284702 z M 147.42751,184.03912 c -0.82209,-1.3279 1.46551,-4.25666 2.72016,-3.48255 0.50242,0.30998 0.91348,1.46191 0.91348,2.55983 0,2.10787 -2.50598,2.74423 -3.63364,0.92272 z m -1.51743,-21.62838 c 0,-2.63558 3.40983,-2.3366 3.92701,0.34434 0.23809,1.23416 -0.31669,1.788 -1.79103,1.788 -1.47435,0 -2.13598,-0.6605 -2.13598,-2.13234 z M 50.615107,124.68843 c -2.833095,-0.87299 -4.670901,-1.75595 -4.084015,-1.96213 0.586886,-0.20617 3.600267,0.52245 6.696403,1.61917 6.676705,2.36506 4.76458,2.61606 -2.612388,0.34296 z m -17.819221,-5.75259 c -5.26762,-1.80322 -9.903592,-3.7338 -10.302157,-4.29022 -0.398568,-0.55639 -1.641319,-1.51824 -2.761669,-2.13743 -1.120351,-0.6192 -2.299929,-2.23768 -2.621282,-3.59666 -0.321353,-1.35894 -1.259093,-2.50124 -2.083864,-2.53842 -0.824769,-0.0371 -3.969464,-0.45004 -6.9882091,-0.91742 -4.5796585,-0.7091 -5.6620932,-1.29453 -6.536062,-3.53503 -1.37114985,-3.515075 -1.38515596,-12.335767 -0.021748,-13.696862 0.7385258,-0.737277 0.8114196,0.07305 0.2357922,2.620887 -0.4665479,2.065095 -0.394591,5.741119 0.1635166,8.353466 0.8465623,3.962529 1.3692238,4.665399 3.4692067,4.665399 1.8589617,0 2.6275293,-0.70179 3.0973298,-2.82828 1.072392,-4.853999 1.505544,-5.063253 1.0644838,-0.51422 l -0.4237995,4.37097 h 3.8828005 c 3.840898,0 3.889907,-0.0518 4.54113,-4.79487 0.518479,-3.776293 0.219947,-5.536628 -1.405292,-8.286532 -1.365734,-2.310795 -2.014567,-5.123872 -1.91857,-8.318062 l 0.145055,-4.826419 0.722959,5.142329 c 0.970733,6.90475 3.767228,12.083449 6.122125,11.337321 0.986715,-0.312644 4.536826,0.128899 7.889134,0.981354 5.967911,1.517474 5.992161,1.537808 1.162003,0.974528 l -4.933098,-0.575245 0.297127,9.498156 0.297127,9.49816 9.787051,3.34585 c 5.38288,1.84021 9.091657,3.34584 8.241727,3.34584 -0.849928,0 -5.855194,-1.47537 -11.122817,-3.27859 z M 22.187878,104.3778 c -0.151143,-5.700661 -0.568514,-7.713515 -1.599432,-7.713515 -1.612367,0 -1.531298,-0.306963 -2.023132,7.660325 -0.357553,5.79206 0.381391,7.70105 3.0003,7.75093 0.454726,0.008 0.734743,-3.45534 0.622264,-7.69774 z m 58.899928,15.34128 c 0.04943,-1.19809 0.293551,-1.4418 0.622424,-0.62137 0.297599,0.74243 0.260998,1.62948 -0.08134,1.97123 -0.342333,0.34175 -0.585823,-0.26568 -0.541089,-1.34986 z M 43.403594,99.749689 40.312947,98.964584 h 3.090647 c 1.699856,0 4.481439,0.353307 6.181296,0.785105 l 3.090648,0.785121 H 49.58489 c -1.699857,0 -4.48144,-0.35331 -6.181296,-0.785121 z m -6.953958,-1.709601 c 0.708276,-0.285294 1.867268,-0.285294 2.575542,0 0.708272,0.285314 0.128783,0.518749 -1.287771,0.518749 -1.416548,0 -1.996045,-0.233435 -1.287771,-0.518749 z M 9.6200431,92.562003 c 0.2946819,-1.124961 0.9691859,-1.77796 1.4989009,-1.451151 0.568324,0.350656 0.468606,1.189063 -0.24327,2.045363 -1.625094,1.954806 -1.8904536,1.829211 -1.2556309,-0.594212 z m -1.758898,-3.838359 c -3.6898265,-0.660806 -4.7777254,-2.084013 -1.19136,-1.558541 2.6676469,0.390872 2.9942379,0.139142 2.9942379,-2.307451 0,-1.510384 0.405647,-3.151115 0.90144,-3.646073 0.515108,-0.514225 0.901439,1.061535 0.901439,3.67678 0,2.517169 -0.231799,4.51364 -0.515109,4.43661 -0.283309,-0.0771 -1.6741014,-0.347622 -3.0906479,-0.601325 z M 39.321339,59.982561 c -2.603376,-2.28376 -2.716962,-2.571184 -0.772664,-1.955134 1.299917,0.411878 2.279381,0.286651 2.279381,-0.291444 0,-0.557514 0.305661,-1.861426 0.679251,-2.897586 0.373587,-1.036161 0.312631,-1.553112 -0.135451,-1.148769 -1.460868,1.318251 -4.633816,-1.241762 -6.211682,-5.01171 -2.209997,-5.28029 -1.877478,-5.624454 0.836475,-0.865789 2.06419,3.619384 2.797829,4.113878 6.103505,4.113878 h 3.757303 l -2.124984,2.256472 c -1.498963,1.591703 -1.988858,3.182383 -1.662911,5.399431 0.254145,1.728642 0.42647,3.128368 0.382949,3.110493 -0.04352,-0.0174 -1.452546,-1.237317 -3.131166,-2.709842 z m -7.906595,-1.347337 c 1.905414,-1.205584 3.655107,-2.001571 3.888206,-1.768876 0.670642,0.669503 -1.958939,2.453628 -4.777054,3.241131 -2.109894,0.589593 -1.949195,0.323428 0.888848,-1.472255 z"
       id="path10" />
  </g>
</svg>
